<svg id="Layer_1" data-name="Layer 1" xmlns="http://www.w3.org/2000/svg" viewBox="0 0 512 512"><defs><style>.cls-1{fill:#f8f2e8;}.cls-2{fill:#a8a8a8;}.cls-3{fill:#ffdd74;}.cls-4{fill:#221f20;}.cls-5{fill:#fff;}.cls-6{fill:#83805e;}</style></defs><circle class="cls-1" cx="256.36" cy="255.32" r="255.64"/><rect class="cls-2" x="150.43" y="312.02" width="117.14" height="5.85" transform="translate(-127.97 486.19) rotate(-83.37)"/><polygon class="cls-2" points="212.58 234.29 210.77 203.77 217.2 203.39 219 233.91 218.15 240.22 211.96 240.44 212.58 234.29"/><polygon class="cls-2" points="307.59 373.46 313.4 372.79 299.91 256.43 294.09 257.1 307.59 373.46"/><polygon class="cls-2" points="300.05 234.29 301.86 203.77 295.43 203.39 293.62 233.91 294.48 240.22 300.67 240.44 300.05 234.29"/><path class="cls-3" d="M299.37,299.13H212.78c-1.39,0-6.17,1.12-11.54,20.57l9.17,1.42c2-7.1,5.37-13.92,6.86-15.32H295.8c1.49,1.4,4.37,7.11,6.33,14.22l8.25-1.42C305,299.13,300.76,299.13,299.37,299.13Z"/><path class="cls-3" d="M304.88,249.16c0,1.73-.85,3.12-1.91,3.12h-93.5c-1.06,0-1.91-1.39-1.91-3.12l3.3-9c.81-1.86,1.19-3.12,1.9-3.12h86.92c1.06,0,1.25,1.34,1.9,3.12Z"/><path class="cls-4" d="M304,253.14a1.5,1.5,0,0,1-1.51,1.5H209.72a1.51,1.51,0,0,1-1.51-1.5l5.38-13c.46-.82,1.31-3.29,2.3-3.29h80.89c.84,0,1,.62,2.06,3.29Z"/><path class="cls-4" d="M313.45,335a1.76,1.76,0,0,1-1.75,1.77H202.42a1.76,1.76,0,0,1-1.75-1.77l2.14-14.45c0-1,2.72-4.11,3.68-4.11l99.16-.22c1,0,4.94,2.69,4.94,3.66Z"/><path class="cls-3" d="M314.17,340.35c0,.94-4.79,5.92-5.72,5.92H205.85c-.95,0-5.87-5.14-5.87-6.09v-7.61c0-.94,4.92,2.67,5.87,2.67h102.6c.93,0,5.72-3.45,5.72-2.5Z"/><path class="cls-2" d="M213.15,255.15,203,206h-6s8.74,47.29,9.66,51.32C205.2,265,181,415.14,181,415.14h6l26.19-155.81a4,4,0,0,0,0-2.09A4,4,0,0,0,213.15,255.15Z"/><path class="cls-2" d="M299.79,255.15,310,206h6s-8.75,47.29-9.67,51.32C307.74,265,332,415.14,332,415.14h-6L299.79,259.33a3.88,3.88,0,0,1,0-2.09A3.89,3.89,0,0,1,299.79,255.15Z"/><path class="cls-3" d="M300.67,259.15a1.73,1.73,0,0,1-1.75,1.73H213.78a1.73,1.73,0,0,1-1.73-1.73v-7.66a1.73,1.73,0,0,1,1.73-1.74h85.14a1.74,1.74,0,0,1,1.75,1.74Z"/><path class="cls-2" d="M299.08,99.47c-8.5-.83-28.48-1-44.53-.94s-35.84.11-44.28.94c-7.71.74-14,9.51-13.91,19.54,0,6.53,4.36,62.62,4.55,65l6-.46c-.05-.59-4.51-58.25-4.53-64.57,0-6.77,3.94-13.1,8.48-13.53,6.29-.62,21-.92,41.68-.9h4.28c20.68,0,35.4.28,41.69.9,4.54.43,8.5,6.76,8.47,13.53,0,6.32-4.48,64-4.53,64.57l6,.46c.19-2.38,4.53-58.47,4.55-65C313,109,306.78,100.21,299.08,99.47Z"/><rect class="cls-2" x="200.27" y="121.53" width="106.45" height="2.93"/><rect class="cls-2" x="200.27" y="138.35" width="106.45" height="2.93"/><path class="cls-5" d="M255.65,180.77H222.59c-15.89,0-23.6,1.29-25.47,3s-9.73,10.74-9.73,10.74c-.43,7.73.85,11.44,4.72,11.44,6.44,0,118,.07,126.92,0,3.87,0,5.16-3.71,4.72-11.44,0,0-7.87-9-9.72-10.74s-9.59-3-25.48-3H255.5"/><path class="cls-6" d="M188.7,421.07a1.87,1.87,0,0,1-2.06,1.67l-6-.63a1.87,1.87,0,0,1-1.67-2.05l1.61-6.42a1.89,1.89,0,0,1,2.06-1.69l4.19.44a1.88,1.88,0,0,1,1.67,2.07Z"/><path class="cls-6" d="M334.18,420.06a1.86,1.86,0,0,1-1.66,2.05l-6.07.62a1.86,1.86,0,0,1-2.05-1.68l.27-6.61a1.87,1.87,0,0,1,1.67-2.05l4.19-.43a1.87,1.87,0,0,1,2.05,1.68Z"/><path class="cls-6" d="M315,375.19a1.73,1.73,0,0,1-1.66,1.8l-5.58.21a1.72,1.72,0,0,1-1.78-1.66l.63-6a1.71,1.71,0,0,1,1.65-1.79l3.86-.15a1.72,1.72,0,0,1,1.79,1.66Z"/><path class="cls-6" d="M207.08,375.46a1.7,1.7,0,0,1-1.74,1.68l-5.59-.09a1.72,1.72,0,0,1-1.68-1.74l1-6a1.72,1.72,0,0,1,1.74-1.7l3.87.06a1.72,1.72,0,0,1,1.69,1.75Z"/></svg>