<svg id="Layer_1" data-name="Layer 1" xmlns="http://www.w3.org/2000/svg" viewBox="0 0 256 256"><defs><style>.cls-1{fill:#e1e2e9;}.cls-2{fill:#a8a8a8;}.cls-3{fill:#ffdd74;}.cls-4{fill:#221f20;}.cls-5{fill:#fff;}.cls-6{fill:#83805e;}</style></defs><circle class="cls-1" cx="128.36" cy="127.32" r="127.64"/><rect class="cls-2" x="75.46" y="155.63" width="58.49" height="2.92" transform="translate(-63.42 242.96) rotate(-83.37)"/><polygon class="cls-2" points="106.5 116.82 105.6 101.58 108.8 101.39 109.7 116.63 109.28 119.78 106.19 119.89 106.5 116.82"/><rect class="cls-2" x="150.56" y="127.85" width="2.93" height="58.49" transform="translate(-17.11 18.58) rotate(-6.62)"/><polygon class="cls-2" points="150.17 116.82 151.07 101.58 147.86 101.39 146.96 116.63 147.39 119.78 150.48 119.89 150.17 116.82"/><path class="cls-3" d="M149.83,149.19H106.6c-.7,0-3.08.56-5.76,10.27l4.57.71c1-3.54,2.69-6.95,3.43-7.65h39.21c.75.7,2.18,3.55,3.16,7.1l4.12-.71C152.65,149.19,150.53,149.19,149.83,149.19Z"/><path class="cls-3" d="M152.59,124.24c0,.86-.43,1.56-1,1.56H105c-.53,0-1-.7-1-1.56l1.65-4.52c.41-.93.59-1.55,1-1.55H150c.53,0,.62.66.95,1.55Z"/><path class="cls-4" d="M152.14,126.23a.76.76,0,0,1-.75.75H105.07a.75.75,0,0,1-.75-.75l2.68-6.47c.23-.41.66-1.64,1.15-1.64h40.39c.42,0,.51.31,1,1.64Z"/><path class="cls-4" d="M156.87,167.09a.88.88,0,0,1-.88.88H101.43a.87.87,0,0,1-.88-.88l1.07-7.21c0-.49,1.36-2,1.84-2l49.51-.11c.48,0,2.47,1.34,2.47,1.82Z"/><path class="cls-3" d="M157.22,169.77a8.68,8.68,0,0,1-2.85,3H103.14c-.48,0-2.93-2.57-2.93-3v-3.8c0-.47,2.45,1.33,2.93,1.33h51.23c.46,0,2.85-1.72,2.85-1.25Z"/><path class="cls-2" d="M106.78,127.23l-5.07-24.56h-3s4.36,23.61,4.82,25.62c-.72,3.84-12.82,78.83-12.82,78.83h3l13.07-77.8a2,2,0,0,0,0-1A2,2,0,0,0,106.78,127.23Z"/><path class="cls-2" d="M150,127.23l5.08-24.56h3s-4.36,23.61-4.82,25.62c.72,3.84,12.83,78.83,12.83,78.83h-3L150,129.32a2,2,0,0,1,0-1A2,2,0,0,1,150,127.23Z"/><path class="cls-3" d="M150.48,129.23a.86.86,0,0,1-.87.86H107.1a.86.86,0,0,1-.87-.86V125.4a.86.86,0,0,1,.87-.86h42.51a.86.86,0,0,1,.87.86Z"/><path class="cls-2" d="M149.69,49.5c-4.24-.41-14.22-.48-22.24-.47s-17.89.06-22.11.47c-3.84.37-7,4.75-6.94,9.76,0,3.26,2.18,31.26,2.27,32.45l3-.23c0-.29-2.25-29.08-2.26-32.24,0-3.38,2-6.54,4.24-6.75,3.14-.31,10.49-.46,20.81-.45h2.13c10.33,0,17.68.14,20.82.45,2.27.21,4.24,3.37,4.23,6.75,0,3.16-2.24,31.95-2.26,32.24l3,.23c.09-1.19,2.26-29.19,2.27-32.45C156.65,54.25,153.53,49.87,149.69,49.5Z"/><rect class="cls-2" x="100.35" y="60.52" width="53.15" height="1.46"/><rect class="cls-2" x="100.35" y="68.91" width="53.15" height="1.46"/><path class="cls-5" d="M128,90.09H111.5c-7.93,0-11.79.65-12.72,1.5S93.92,97,93.92,97c-.21,3.85.43,5.71,2.36,5.71,3.21,0,58.9,0,63.37,0,1.93,0,2.57-1.86,2.36-5.71,0,0-3.93-4.51-4.86-5.37s-4.79-1.5-12.72-1.5h-16.5"/><path class="cls-6" d="M94.58,210.08a1,1,0,0,1-1,.83l-3-.32a.93.93,0,0,1-.84-1l.8-3.2a1,1,0,0,1,1-.85l2.1.22a.94.94,0,0,1,.83,1Z"/><path class="cls-6" d="M167.21,209.57a.93.93,0,0,1-.83,1l-3,.31a.94.94,0,0,1-1-.84l.13-3.3a1,1,0,0,1,.84-1l2.09-.21a.93.93,0,0,1,1,.84Z"/><path class="cls-6" d="M157.64,187.17a.86.86,0,0,1-.83.9l-2.78.1a.86.86,0,0,1-.89-.83l.31-3a.85.85,0,0,1,.83-.89l1.92-.08a.88.88,0,0,1,.9.83Z"/><path class="cls-6" d="M103.76,187.3a.88.88,0,0,1-.88.85l-2.79-.05a.86.86,0,0,1-.84-.87l.48-3a.85.85,0,0,1,.87-.84l1.93,0a.85.85,0,0,1,.84.87Z"/></svg>